<svg width="1133" height="1111" viewBox="0 0 1133 1111" fill="none" xmlns="http://www.w3.org/2000/svg">
<path d="M229.938 735.482C257.395 717.423 284.203 705.038 349.79 680.113C391.025 658.755 450.143 665.747 480.716 626.851C483.75 622.174 467.273 589.606 450.682 567.485C434.831 546.35 406.299 517.641 375.628 491.966C345.038 466.358 347.134 467.524 339.738 472.005C317.858 485.262 292.592 506.34 242.074 553.478C184.498 607.203 170.947 618.721 144.238 636.64C131.417 645.242 105.624 659.004 94.2357 663.32C88.6798 665.425 87.03 667.19 82.822 675.526C61.7624 717.245 51.3893 763.465 56.4129 793.2C59.9845 814.34 74.6005 836.891 87.5438 841.231C90.525 842.231 98.2154 842.855 104.634 842.618C156.884 825.186 186.262 764.305 229.938 735.482ZM360.896 623.286C352.781 616.013 344.951 609.388 343.497 608.563C340.39 606.799 337.909 609.099 327.074 623.789C318.903 634.866 316.554 635.534 307.282 629.414C298.281 623.472 278.575 603.729 278.575 600.652C278.575 597.854 292.864 572.104 296.476 568.393C299.14 565.655 304.413 568.913 323.635 585.176C330.87 591.296 337.802 596.109 339.04 595.87C340.278 595.632 345.455 589.322 350.545 581.849C358.041 570.842 360.538 568.261 363.693 568.261C366.567 568.261 372.198 572.811 385.21 585.649C394.903 595.212 402.834 604.002 402.834 605.181C402.834 608.797 390.306 628.647 385.439 632.742C382.915 634.866 379.681 636.582 378.251 636.556C376.822 636.53 369.012 630.558 360.896 623.286ZM870.94 803.964C878.51 799.998 887.421 793.615 893.258 787.976C902.629 778.924 902.974 778.314 902.974 770.829C902.974 750.883 891.723 734.184 876.34 726.245C864.675 720.224 840.562 720.475 837.084 729.368C832.306 743.391 834.743 764.752 843.783 788.081C849.29 802.294 853.99 810.565 856.558 810.565C857.537 810.565 864.009 807.595 870.94 803.964ZM421.579 933.827C491.954 911.306 553.671 884.136 597.516 844.629C609.889 833.04 611.159 831.33 610.361 827.34C608.543 818.253 595.229 786.775 576.001 746.106C544.763 680.036 545.163 681.093 547.251 669.998C550.347 653.542 555.681 641.263 559.732 641.263C562.019 641.263 615.626 701.527 615.626 704.098C615.626 707.595 607.492 707.166 599.847 703.266C595.705 701.153 592.984 700.562 591.988 701.558C589.438 704.107 594.568 718.382 607.226 743.958C627.572 785.072 632.698 807.425 627.451 832.164C622.806 854.069 613.224 870.416 592.442 891.892C532.227 942.625 492.432 970.662 416.528 999.616C416.528 999.616 421.871 1031.99 430.676 1049.86C444.134 1077.16 471.615 1073.66 496.582 1061.9C556.226 1028.13 563.972 993.009 611.088 942.69C644.66 907.178 673.449 882.104 743.739 852.967C787.055 835.011 828.421 828.461 828.411 825.032C828.407 823.482 826.714 814.176 824.651 804.352C816.791 766.939 815.669 736.579 821.348 715.042C827.504 691.699 841.859 672.201 856.011 667.961C864.252 665.492 878.595 665.622 884.817 668.221C887.59 669.38 893.019 673.843 896.881 678.139C916.473 699.929 926.577 737.553 920.923 767.657C915.714 795.385 904.651 816.375 883.777 838.133L871.485 850.946L875.769 857.128C890.653 878.643 949.194 877.972 1008.03 851.417C1008.57 849.288 1006.05 818.082 1002.45 782.07C995.803 715.685 994.504 704.748 973.754 540.303C946.372 323.302 941.311 283.226 933.989 225.429C929.745 191.923 926.272 158.71 926.272 158.71L939.351 129.149C948.761 160.666 984.063 237.423 984.063 237.423C984.063 237.423 978.132 234.278 974.588 230.434C971.045 226.589 966.492 223.444 966.492 223.444C966.492 223.444 965.153 227.184 965.785 234.705C966.306 240.898 967.769 258.547 969.037 273.924C975.251 349.282 976.546 360.623 1021.89 736.787C1029.2 797.448 1029.13 796.446 1027.37 819.108C1024.25 859.105 1015.85 882.549 998.352 900.068C981.54 916.899 954.383 927.246 926.272 927.53C908.003 927.714 896.128 924.618 884.563 916.653C874.672 909.841 861.438 893.752 852.494 877.664C849.077 871.518 845.394 866.487 844.309 866.485C841.52 866.481 792.904 877.442 768.869 888.06C731.389 904.618 683.216 937.531 668.758 947.202C648.526 960.734 622.965 985.955 588.988 1025.91C543.466 1079.44 520.52 1101.21 503.226 1107.29C492.968 1110.9 478.744 1111.13 466.679 1107.88C454.343 1104.56 443.805 1098.33 432.391 1087.61C415.368 1071.61 406.05 1052.06 400.618 1020.94C399.305 1013.42 398.823 1003.99 398.823 1003.99C398.823 1003.99 385.709 1006.39 373.322 1008.1C340.69 1012.59 300.145 1012.62 279.352 1008.17C239.849 999.698 211.559 975.921 196.369 938.419C188.242 918.352 184.176 896.037 182.767 863.763C182.098 848.461 181.24 841.63 179.984 841.63C178.073 841.63 174.572 844.208 155.443 859.708C139.624 872.525 133.264 874.809 115.726 873.971C96.4507 873.049 84.8898 867.349 68.5796 850.726C30.0251 811.431 29.8789 762.132 68.0491 671.871C69.4198 668.63 70.1789 665.392 69.7362 664.676C69.2935 663.959 63.6579 660.869 57.2127 657.808C28.3482 644.1 8.47668 621.711 2.55012 596.219C-7.37351 541.591 13.239 501.466 37.2223 453.047C34.522 501.193 0.416161 563.688 28.0633 604.187C37.4304 618.086 65.8959 618.992 85.032 614.58C96.3028 611.981 127.447 593.078 153.622 572.949C220.96 518.015 238.852 503.323 299.31 447.422C305.142 442.042 309.588 436.789 309.189 435.75C308.576 434.152 115.47 286.159 109.058 282.367L100.669 275.477L100.897 253.732C101.136 231.008 103.688 217.199 111.022 198.962L114.309 190.789L140.137 176.22C267.388 104.441 427.066 44.7636 606.025 2.10187C619.91 -1.20809 638.631 -0.528987 646.691 3.57698C660.488 10.6058 665.952 19.4872 665.885 34.7785C665.739 67.9582 638.944 112.717 582.229 174.517C568.763 189.191 551.295 209.04 539.795 222.736L534.636 228.88L535.458 222.667C535.909 219.25 539.452 210.164 543.329 202.475C554.34 180.644 560.244 173.314 617.595 110.272C636.329 89.6781 643.585 78.7152 643.585 71.0005C643.585 62.6803 640.344 55.6125 634.135 50.3874L628.922 46.0014L602.471 46.7822C527.181 53.128 492.843 75.206 427.18 94.6812C405.739 100.984 287.372 143.025 238.191 164.099C194.21 182.945 120.146 221.169 120.146 225.021C120.146 226.871 119.006 226.065 276.245 335.333C297.602 350.174 326.879 370.62 341.304 380.768C355.729 390.916 368.473 399.58 369.624 400.022C370.775 400.463 376.795 398.727 383.004 396.163C411.556 384.373 437.51 378.78 463.706 378.772C472.84 378.769 480.683 378.167 481.136 377.435C482.229 375.665 476.567 352.634 465.235 312.755C442.193 231.668 439.15 194.666 452.879 162.48C456.03 155.093 458.664 153.405 461.363 157.043C465.023 161.979 498.045 231.264 497.159 232.15C496.607 232.701 493.318 232.016 489.848 230.628C478.604 226.129 478.354 226.379 479.55 240.918C481.044 259.084 487.491 289.774 493.824 308.872C507.781 350.965 526.738 376.893 561.554 401.511C572.961 409.576 573.577 410.325 575.359 418.29C577.939 429.816 576.567 457.323 573.246 460.643C571.003 462.886 570.095 462.523 562.9 456.499C534.741 432.922 497.058 420.84 461.027 423.835C445.284 425.144 424.579 430.722 424.579 433.654C424.579 434.724 432.779 442.208 442.8 450.286C495.177 492.5 557.808 545.576 599.811 583.343C626.849 607.655 650.717 624.177 658.799 624.177C662.151 624.177 662.351 623.698 661.554 617.576C661.082 613.946 659.947 602.588 659.033 592.336C656.386 562.663 650.312 509.749 642.719 450.216C638.851 419.889 633.953 381.446 631.835 364.788C626.604 323.657 620.942 273.736 618.575 247.869L616.616 226.475C618.73 222.967 628.831 204.805 628.831 204.805L676.541 310.707C676.541 310.707 670.928 308.376 665.561 304.033C660.194 299.69 655.363 296.575 654.827 297.112C653.411 298.528 662.882 379.735 676.155 479.983C681.445 519.935 689.89 589.708 691.823 609.422C693.943 631.046 695.026 632.74 707.696 634.251C723.426 636.127 750.37 626.187 767.583 612.158C771.285 609.141 775.001 605.163 775.842 603.318C777.754 599.121 771.638 544.147 757.598 439.343C752.047 397.911 746.864 359.119 746.081 353.139C745.297 347.159 741.517 318.851 737.681 290.233C733.846 261.615 729.649 230.162 728.357 220.338C719.437 152.548 715.73 126.548 710.23 93.1769C702.513 46.3602 702.291 41.5723 702.291 41.5723C702.291 41.5723 712.886 7.545 714.249 7.545C718.69 7.545 767.512 112.574 767.512 112.574L741.33 99.1856C741.33 99.1856 741.576 143.697 770.207 353.58C789.258 493.233 798.899 568.477 798.881 577.376C798.827 603.837 789.457 630.125 774.683 645.263C761.143 659.137 739.225 671.968 716.586 679.272C711.888 680.788 702.808 680.142 701.965 680.923C701.024 681.795 706.936 749.652 706.839 780.359C706.699 824.109 701.472 966.304 698.576 982.601C695.098 1002.17 685.127 1036.07 682.969 1036.07C682.274 1036.07 681.277 1020.87 680.753 1002.29C679.829 969.494 682.045 758.403 676.97 711.389C673.605 680.215 674.52 682.569 664.182 678.5C637.229 667.89 613.309 650.608 573.819 613.212C504.31 547.388 483.47 529.218 450.364 505.575C443.616 500.756 437.5 496.813 436.773 496.813C433.729 496.813 435.975 500.779 444.543 510.536C460.867 529.124 471.116 543.89 479.756 561.272C490.576 583.039 494.474 598.142 494.474 618.295C494.474 657.734 483.248 674.09 440.111 697.495C422.546 707.026 405.346 713.89 367.451 726.491C301.097 748.556 275.988 759.117 250.01 775.89C228.345 789.878 204.962 811.77 198.545 824.073C193.933 832.914 196.811 867.699 204.017 890.215C216.057 927.835 248.78 944.485 290.616 955.011C329.565 962.022 359.702 954.372 403.455 941.466C411.421 918.302 438.12 873.205 447.082 852.077C442.965 877.784 426.322 913.819 421.579 933.827ZM411.485 816.347C403.073 807.896 398.023 801.59 398.023 799.536C398.023 795.356 409.117 778.653 415.409 773.358C418.467 770.785 421.109 769.715 422.704 770.403C442.324 782.713 449.183 793.2 460.152 804.275C460.152 808.841 451.604 819.608 439.788 835.622C432.019 835.893 427.247 832.183 411.485 816.347ZM45.7905 438.016L43.488 431.234C39.5231 419.555 37.8147 402.263 39.4528 390.39C43.4954 361.088 51.0987 348.807 81.0121 308.458C87.8601 302.345 106.91 280.069 103.698 289.485C103.427 289.889 92.488 307.213 92.2193 307.618C80.2966 325.604 70.361 345.584 67.5366 357.321C65.0937 367.474 65.3492 381.403 68.1512 390.839C72.904 406.843 78.8829 407.723 91.6636 394.299C96.5438 389.174 101.803 384.98 103.352 384.98C106.757 384.98 106.78 385.456 103.858 395.297C93.0893 418.882 61.1638 464.401 45.7905 438.016ZM352.231 1083.25C342.08 1078.91 338.315 1060.17 342.972 1037.18C345.788 1023.28 347.604 1018.7 350.291 1018.7C351.49 1018.7 351.688 1023 350.953 1033.07C349.816 1048.63 351.244 1055.74 356.723 1061.8C360.808 1066.31 364.146 1066.22 368.618 1061.46C375.118 1054.54 377.118 1061.13 371.904 1072.28C366.396 1084.07 361.088 1087.03 352.231 1083.25ZM796.658 1030.1C787.776 1008.1 777.799 998.116 760.508 993.94C755.593 992.753 753.183 991.027 750.595 986.84C746.027 979.449 745.071 969.784 748.174 962.359C750.495 956.804 750.944 956.516 755.715 957.525C767.482 960.014 780.497 972.578 792.246 992.791C798.231 1003.09 803.307 1009.79 803.58 1007.77C803.623 1007.45 804.599 997.56 805.748 985.791C808.046 962.268 812.782 948.757 819.86 945.532C827.624 941.995 838.446 947.552 843.696 957.773C846.181 962.608 845.879 965.052 842.223 969.699C838.649 974.243 836.504 973.777 827.846 966.575C822.572 962.187 818.848 961.945 815.392 965.763C813.32 968.052 812.816 972.046 812.791 986.343C812.744 1013.6 807.797 1040.58 802.848 1040.58C801.771 1040.58 798.985 1035.87 796.658 1030.1ZM569.964 537.851C569.964 537.851 583.362 524.526 593.586 517.102C585.232 515.53 572.985 498.447 574.192 493.212C575.631 487.478 586.68 476.143 594.538 472.339C603.966 467.774 607.696 469.791 607.696 479.453C607.696 484.09 604.939 487.513 604.939 487.513C604.939 487.513 605.85 484.095 603.826 482.263C597.041 479.943 583.39 487.778 585.85 494.619C587.696 499.474 594.852 503.425 601.799 503.425C604.62 503.425 611.745 502.048 617.631 500.364C623.517 498.681 630.601 495.269 630.601 495.269C631.3 498.067 631.909 504.02 631.817 505.686C615.523 520.949 576.784 541.07 576.784 541.07L569.964 537.851ZM1085.64 770.723C1085.13 768.289 1082.6 736.39 1080.02 699.835C1074.5 621.72 1072.21 597.747 1065.94 552.729C1063.39 534.362 1059.21 504.307 1056.66 485.94C1054.11 467.573 1050.68 443.11 1049.03 431.577C1047.39 420.044 1043.53 392.436 1040.44 370.224C1030.42 298.089 1027.48 287.594 1027.48 287.594L1037.33 242.597C1057.5 276.265 1093.61 351.998 1093.61 351.998L1064.51 335.076C1064.51 335.076 1073.16 414.664 1081.67 470.834C1098.7 583.203 1103.6 632.861 1103.6 693.36C1103.59 734.123 1102.83 739.503 1093.99 760.943C1088.24 774.883 1086.85 776.507 1085.64 770.723ZM904.527 606.171C896.412 598.917 888.6 592.315 887.168 591.5C885.032 590.286 882.582 592.532 873.542 603.992C867.48 611.677 861.945 617.965 861.242 617.965C855.372 617.965 822.206 588.816 822.206 583.658C822.206 580.122 840.017 551.232 842.215 551.204C845.566 551.16 854.049 556.909 867.793 568.536C874.738 574.411 881.442 579.021 882.692 578.781C884.929 578.35 889.569 572.714 899.447 558.429C902.46 554.072 905.649 551.176 907.432 551.176C911.32 551.176 921.507 559.791 936.287 575.579L948.228 588.333L941.648 599.408C933.775 612.66 927.248 619.546 922.658 619.44C920.688 619.394 913.14 613.87 904.527 606.171ZM877.54 541.662C877.006 538.993 876.569 531.784 876.569 525.644C857.315 419.922 850.468 297.146 819.044 109.112C816.512 95.3504 814.44 77.8228 814.44 77.8228L829.226 43.2949L877.016 155.102L855.114 141.583C871.948 270.796 880.505 338.16 888.856 402.407C893.959 437.57 894.895 476.316 891.305 503.705C888.964 521.559 882.259 546.516 879.802 546.516C879.092 546.516 878.074 544.332 877.54 541.662ZM1113.81 530.42C1105.52 522.733 1104.11 517.84 1104.16 496.813C1104.21 478.604 1106.05 465.634 1111.35 446.333C1113.85 437.221 1115.42 443.215 1113.93 456.173C1110.76 483.71 1110.67 489.844 1113.26 498.762C1114.67 503.609 1117.5 509.523 1119.55 511.902L1123.27 516.228L1127.09 512.649C1130.43 509.515 1131.02 509.386 1131.88 511.611C1133.92 516.935 1132.82 525.946 1129.63 529.998C1125.54 535.195 1119.15 535.365 1113.81 530.42ZM791.424 271.547C781.212 265.321 776.534 245.221 780.049 222.667C782.068 209.718 786.125 195.486 787.799 195.486C788.458 195.486 788.381 200.903 787.629 207.523C785.256 228.407 787.857 243.128 795.453 251.79C799.048 255.891 803.189 255.086 805.948 249.75C808.872 244.095 811.908 244.483 812.625 250.602C813.466 257.777 811.469 264.982 807.251 269.995C802.624 275.493 798.552 275.893 791.424 271.547ZM182.26 472.592C172.75 467.544 169.14 454.488 171.477 433.593C173.851 412.375 183.194 381.3 187.199 381.3C189.213 381.3 187.632 396.94 184.331 409.681C180.592 424.111 180.881 436.803 185.151 445.623C189.316 454.227 191.336 455.361 197.757 452.701C204.286 449.997 206.11 452.143 203.986 460.03C201.063 470.886 190.525 476.979 182.26 472.592ZM363.933 280.924C358.643 274.2 355.487 261.972 355.554 248.457C355.622 234.622 359.502 215.398 363.131 210.912C365.251 208.292 365.358 209.218 364.232 220.436C361.964 243.034 357.266 250.038 366.21 259.545C368.986 262.495 375.014 265.892 378.286 260.898C381.905 255.376 385.47 255.748 385.47 261.647C385.47 268.046 382.125 275.481 376.933 280.624C371.559 285.946 367.949 286.029 363.933 280.924Z" fill="white"/>
</svg>
